<svg width="250" height="80" viewBox="0 0 250 80" fill="none" xmlns="http://www.w3.org/2000/svg">
<path d="M110.696 50.1162V21.1404H135.763V50.1162H129.462V27.1298H116.998V50.1162H110.696Z" fill="black"/>
<path d="M146.428 32.4709C146.887 31.6873 147.996 31.0214 148.954 30.4659C149.909 29.914 151.117 29.6344 152.572 29.6344C153.839 29.6344 155.05 29.8919 156.207 30.4033C157.364 30.9184 158.381 31.6358 159.255 32.5702C160.129 33.501 160.823 34.6121 161.337 35.9071C161.848 37.2021 162.105 38.6332 162.105 40.1968C162.105 41.7604 161.848 43.1915 161.337 44.4865C160.827 45.7816 160.133 46.8926 159.255 47.8234C158.381 48.7542 157.364 49.4753 156.207 49.9867C155.05 50.498 153.839 50.7556 152.572 50.7556C151.117 50.7556 149.913 50.4796 148.954 49.9241C148 49.3723 147.291 48.7027 146.836 47.9191V58.8457H140.776V30.2856H146.432V32.4709H146.428ZM151.235 35.3037C150.589 35.3037 149.975 35.4178 149.395 35.6459C148.815 35.874 148.304 36.2051 147.86 36.6392C147.416 37.0697 147.067 37.5847 146.81 38.177C146.553 38.7694 146.424 39.4463 146.424 40.2005C146.424 40.9547 146.553 41.6353 146.81 42.246C147.067 42.8531 147.416 43.3645 147.86 43.7839C148.304 44.2033 148.815 44.527 149.395 44.7551C149.975 44.9832 150.585 45.1009 151.235 45.1009C151.885 45.1009 152.494 44.9869 153.075 44.7551C153.655 44.527 154.165 44.2033 154.61 43.7839C155.054 43.3645 155.403 42.8531 155.66 42.246C155.917 41.639 156.046 40.9584 156.046 40.2005C156.046 39.4426 155.917 38.7694 155.66 38.177C155.403 37.5847 155.054 37.0697 154.61 36.6392C154.165 36.2088 153.655 35.8777 153.075 35.6459C152.494 35.4178 151.885 35.3037 151.235 35.3037Z" fill="black"/>
<path d="M175.027 29.6377C176.562 29.6377 177.984 29.8989 179.287 30.4287C180.595 30.9548 181.726 31.6832 182.68 32.614C183.635 33.5448 184.377 34.6595 184.902 35.9509C185.427 37.2459 185.692 38.6623 185.692 40.2001C185.692 41.7379 185.427 43.1544 184.902 44.4494C184.377 45.7444 183.635 46.8554 182.68 47.7862C181.726 48.717 180.595 49.4455 179.287 49.9716C177.98 50.4977 176.562 50.7625 175.027 50.7625C173.492 50.7625 172.071 50.5013 170.768 49.9716C169.46 49.4455 168.329 48.717 167.374 47.7862C166.42 46.8554 165.678 45.7444 165.153 44.4494C164.628 43.1544 164.363 41.7379 164.363 40.2001C164.363 38.6623 164.628 37.2459 165.153 35.9509C165.678 34.6559 166.42 33.5448 167.374 32.614C168.329 31.6832 169.46 30.9548 170.768 30.4287C172.075 29.9026 173.496 29.6377 175.027 29.6377ZM175.027 45.0969C175.648 45.0969 176.232 44.9828 176.783 44.751C177.334 44.523 177.826 44.1992 178.259 43.7798C178.689 43.3604 179.026 42.849 179.269 42.242C179.511 41.6349 179.632 40.9543 179.632 40.1964C179.632 39.4386 179.511 38.7653 179.269 38.173C179.026 37.5807 178.689 37.0656 178.259 36.6352C177.829 36.2047 177.337 35.8736 176.783 35.6418C176.232 35.4137 175.644 35.2997 175.027 35.2997C174.41 35.2997 173.823 35.4137 173.272 35.6418C172.721 35.8699 172.229 36.201 171.796 36.6352C171.366 37.0656 171.028 37.5807 170.786 38.173C170.544 38.7653 170.422 39.4422 170.422 40.1964C170.422 40.9506 170.544 41.6313 170.786 42.242C171.028 42.849 171.366 43.3604 171.796 43.7798C172.225 44.1992 172.718 44.523 173.272 44.751C173.823 44.9791 174.41 45.0969 175.027 45.0969Z" fill="black"/>
<path d="M192.922 50.1154V35.9512H186.903V30.2855H205V35.9512H198.981V50.1154H192.922Z" fill="black"/>
<path d="M216.876 29.6377C218.411 29.6377 219.833 29.8989 221.136 30.4287C222.443 30.9548 223.575 31.6832 224.529 32.614C225.484 33.5448 226.226 34.6595 226.751 35.9509C227.276 37.2459 227.541 38.6623 227.541 40.2001C227.541 41.7379 227.276 43.1544 226.751 44.4494C226.226 45.7444 225.484 46.8554 224.529 47.7862C223.575 48.717 222.443 49.4455 221.136 49.9716C219.829 50.4977 218.411 50.7625 216.876 50.7625C215.341 50.7625 213.92 50.5013 212.617 49.9716C211.309 49.4455 210.178 48.717 209.223 47.7862C208.269 46.8554 207.527 45.7444 207.002 44.4494C206.477 43.1544 206.212 41.7379 206.212 40.2001C206.212 38.6623 206.477 37.2459 207.002 35.9509C207.527 34.6559 208.269 33.5448 209.223 32.614C210.178 31.6832 211.309 30.9548 212.617 30.4287C213.924 29.9026 215.345 29.6377 216.876 29.6377ZM216.876 45.0969C217.497 45.0969 218.081 44.9828 218.632 44.751C219.183 44.523 219.675 44.1992 220.108 43.7798C220.538 43.3604 220.875 42.849 221.118 42.242C221.36 41.6349 221.481 40.9543 221.481 40.1964C221.481 39.4386 221.36 38.7653 221.118 38.173C220.875 37.5807 220.538 37.0656 220.108 36.6352C219.678 36.2047 219.186 35.8736 218.632 35.6418C218.081 35.4137 217.493 35.2997 216.876 35.2997C216.259 35.2997 215.672 35.4137 215.121 35.6418C214.57 35.8699 214.078 36.201 213.645 36.6352C213.215 37.0656 212.877 37.5807 212.635 38.173C212.393 38.7653 212.271 39.4422 212.271 40.1964C212.271 40.9506 212.393 41.6313 212.635 42.242C212.877 42.849 213.215 43.3604 213.645 43.7798C214.074 44.1992 214.566 44.523 215.121 44.751C215.672 44.9791 216.259 45.0969 216.876 45.0969Z" fill="black"/>
<path d="M243.941 50.1154V42.7905H236.589V50.1154H230.53V30.2855H236.589V37.1248H243.941V30.2855H250V50.1154H243.941Z" fill="black"/>
<path d="M62.7222 0H14.9608L0 80L26.9727 74.6066L34.8424 32.0037C35.1362 30.4364 34.2071 28.9023 32.6868 28.435L26.0694 26.4079C25.0007 25.7604 25.4598 24.1122 26.7083 24.1122H53.4681C56.7254 24.1122 59.1858 27.0775 58.5835 30.2856L51.4557 69.7098L78.2889 64.3421L85.2184 27.221C87.8992 13.0862 77.0807 0 62.7222 0Z" fill="url(#paint0_linear_562_1405)"/>
<defs>
<linearGradient id="paint0_linear_562_1405" x1="0" y1="39.9982" x2="85.6297" y2="39.9982" gradientUnits="userSpaceOnUse">
<stop stop-color="#2E3192"/>
<stop offset="1" stop-color="#00AEEF"/>
</linearGradient>
</defs>
</svg>
